<svg width="60" height="60" viewBox="0 0 60 60" fill="none" xmlns="http://www.w3.org/2000/svg">
<g clip-path="url(#clip0_20_944)">
<path d="M55.9674 4.03229C50.591 -1.3441 41.843 -1.3441 36.4665 4.03229L30.7565 9.74227C28.5219 11.9771 27.1149 14.9406 26.795 18.0868C26.5121 20.8689 27.0866 23.6835 28.4142 26.1148L26.1151 28.4139C23.6838 27.0864 20.8693 26.5119 18.0871 26.7948C14.9407 27.1146 11.9772 28.5216 9.74251 30.7563L4.03242 36.4663C-1.34398 41.8427 -1.34398 50.5907 4.03242 55.9672C6.66127 58.596 10.195 59.9999 13.7946 59.9999C15.4411 59.9999 17.102 59.7058 18.6951 59.1009C19.3 58.8713 19.6042 58.1946 19.3746 57.5896C19.1448 56.9846 18.4681 56.6804 17.8633 56.9102C13.6481 58.5106 8.86959 57.4902 5.68968 54.3103C1.22699 49.8476 1.22699 42.5861 5.68968 38.1236L11.3997 32.4135C14.8229 28.9902 20.0755 28.1368 24.3748 30.1543L22.3007 32.2284C19.1532 31.1569 15.6934 31.943 13.3112 34.3252L7.60121 40.0352C5.95238 41.6841 5.04419 43.8796 5.04419 46.2169C5.04419 48.5544 5.95226 50.7497 7.60121 52.3985C9.25016 54.0474 11.4455 54.9555 13.7829 54.9555C16.1204 54.9555 18.3157 54.0474 19.9645 52.3985L25.6746 46.6885C28.0484 44.3148 28.8369 40.8709 27.7822 37.7322L29.8588 35.6556C31.8551 39.948 30.9948 45.1917 27.5863 48.6002L25.6044 50.582C25.1469 51.0396 25.1469 51.7815 25.6044 52.2391C25.8333 52.4679 26.1331 52.5823 26.4329 52.5823C26.7328 52.5823 27.0327 52.4679 27.2615 52.2391L29.2433 50.2573C31.4679 48.0327 32.8734 45.0833 33.2007 41.9524C33.4917 39.1698 32.9239 36.3498 31.601 33.9134L33.9115 31.6029C35.9299 32.6989 38.2116 33.2756 40.5178 33.2755C40.9878 33.2755 41.4592 33.2515 41.9292 33.2032C45.0691 32.8801 48.0267 31.4739 50.2573 29.2433L55.9673 23.5333C61.3438 18.1568 61.3438 9.40869 55.9674 4.03229ZM35.9824 14.9681L41.6925 9.25812C42.8987 8.05185 44.5056 7.38749 46.217 7.38749C47.9284 7.38749 49.5353 8.05185 50.7417 9.25812C51.948 10.4644 52.6123 12.0713 52.6123 13.7827C52.6123 15.4941 51.948 17.101 50.7417 18.3074L45.0318 24.0173C43.6178 25.4314 41.6183 26.0758 39.6829 25.8317L39.6862 25.8284C41.2005 24.3141 41.2005 21.8501 39.6862 20.3358C38.9525 19.6023 37.9772 19.1983 36.9398 19.1983C35.9023 19.1983 34.927 19.6023 34.1935 20.3359L34.1662 20.3632C33.8926 18.4088 34.5345 16.416 35.9824 14.9681ZM35.8503 21.9929C36.1413 21.7019 36.528 21.5416 36.9395 21.5416C37.351 21.5416 37.7378 21.7019 38.0288 21.9929C38.6294 22.5935 38.6294 23.5707 38.0288 24.1713L32.8934 29.3068C32.8881 29.3121 32.8827 29.3172 32.8775 29.3227L31.5996 30.6006L30.1467 27.6966L35.8503 21.9929ZM24.1715 38.0286C23.5709 38.6294 22.5936 38.6293 21.9931 38.0286C21.7022 37.7377 21.5419 37.3508 21.5419 36.9394C21.5419 36.528 21.7022 36.1411 21.9931 35.8502L28.4002 29.4431L29.8532 32.347L24.1715 38.0286ZM24.0176 45.0314L18.3075 50.7413C17.1012 51.9476 15.4943 52.612 13.7829 52.612C12.0715 52.612 10.4646 51.9476 9.25824 50.7413C8.05197 49.5351 7.38761 47.9282 7.38761 46.2168C7.38761 44.5054 8.05197 42.8985 9.25824 41.6921L14.9681 35.9821C16.3893 34.561 18.4079 33.9165 20.3556 34.1733L20.3358 34.1931C19.6022 34.9267 19.1982 35.9019 19.1982 36.9393C19.1982 37.9767 19.6022 38.9521 20.3357 39.6857C21.0929 40.4428 22.0875 40.8214 23.0821 40.8214C24.0766 40.8214 25.0712 40.4428 25.8283 39.6857L25.8388 39.6752C26.0986 41.617 25.4561 43.593 24.0176 45.0314ZM54.3104 21.876L48.6003 27.586C45.1879 30.9985 39.9485 31.8574 35.6551 29.8591L37.7341 27.7802C38.6294 28.0772 39.5576 28.2242 40.482 28.2242C42.7659 28.2242 45.0239 27.339 46.6886 25.6744L52.3986 19.9644C54.0475 18.3154 54.9556 16.1201 54.9556 13.7827C54.9556 11.4452 54.0476 9.24992 52.3986 7.60109C50.7497 5.95214 48.5544 5.04407 46.2169 5.04407C43.8795 5.04407 41.6842 5.95214 40.0352 7.60109L34.3252 13.3111C31.9434 15.6929 31.157 19.1531 32.2285 22.3005L30.1544 24.3746C28.137 20.0752 28.9903 14.8226 32.4136 11.3994L38.1236 5.68944C42.5861 1.22675 49.8477 1.22675 54.3103 5.68944C58.7731 10.152 58.7731 17.4133 54.3104 21.876Z" fill="black"/>
<path d="M49.2795 44.4719C49.1464 44.0916 48.8271 43.8064 48.4343 43.7168C48.0414 43.6272 47.6301 43.7457 47.3452 44.0305L45.3493 46.0265L43.8775 41.8234C43.6635 41.2126 42.995 40.8908 42.3844 41.1048C41.7736 41.3186 41.4519 41.9871 41.6658 42.5979L43.7536 48.5606C43.8867 48.9409 44.206 49.2261 44.5989 49.3158C44.9919 49.4056 45.4032 49.2868 45.688 49.002L47.6839 47.006L49.1557 51.209C49.3247 51.6918 49.7775 51.9938 50.2616 51.9938C50.39 51.9938 50.5206 51.9725 50.6488 51.9276C51.2596 51.7138 51.5813 51.0453 51.3674 50.4345L49.2795 44.4719Z" fill="#399A3A"/>
<path d="M51.2135 35.1897H46.5167C45.8695 35.1897 45.345 35.7143 45.345 36.3614C45.345 37.0085 45.8695 37.5331 46.5167 37.5331H51.2135C51.8606 37.5331 52.3852 37.0085 52.3852 36.3614C52.3852 35.7143 51.8606 35.1897 51.2135 35.1897Z" fill="#399A3A"/>
<path d="M36.3616 45.3447C35.7145 45.3447 35.1899 45.8693 35.1899 46.5164V51.2132C35.1899 51.8604 35.7145 52.3849 36.3616 52.3849C37.0088 52.3849 37.5334 51.8604 37.5334 51.2132V46.5164C37.5334 45.8693 37.0088 45.3447 36.3616 45.3447Z" fill="#399A3A"/>
<path d="M8.8127 10.8662L13.0157 12.338L11.0197 14.3339C10.7348 14.6189 10.6163 15.0301 10.706 15.423C10.7956 15.8159 11.0808 16.1352 11.4611 16.2683L17.4237 18.3562C17.5518 18.401 17.6824 18.4224 17.811 18.4224C18.2949 18.4224 18.7479 18.1202 18.9168 17.6376C19.1307 17.0269 18.809 16.3584 18.1982 16.1444L13.9952 14.6727L15.9912 12.6768C16.2761 12.3918 16.3946 11.9805 16.305 11.5877C16.2153 11.1948 15.9301 10.8755 15.5498 10.7424L9.58708 8.65452C8.97627 8.44069 8.30793 8.76244 8.09397 9.37313C7.88014 9.98394 8.20189 10.6524 8.8127 10.8662Z" fill="#399A3A"/>
<path d="M23.6602 14.6768C24.3074 14.6768 24.8319 14.1522 24.8319 13.5051V8.80819C24.8319 8.16105 24.3074 7.63647 23.6602 7.63647C23.0131 7.63647 22.4885 8.16105 22.4885 8.80819V13.5051C22.4885 14.1522 23.0131 14.6768 23.6602 14.6768Z" fill="#399A3A"/>
<path d="M8.80843 24.8317H13.5053C14.1525 24.8317 14.6771 24.3071 14.6771 23.66C14.6771 23.0129 14.1525 22.4883 13.5053 22.4883H8.80843C8.16129 22.4883 7.63672 23.0129 7.63672 23.66C7.63672 24.3071 8.16129 24.8317 8.80843 24.8317Z" fill="#399A3A"/>
<path d="M22.7049 53.967C22.3968 53.967 22.0945 54.0924 21.8765 54.3104C21.6586 54.5283 21.5332 54.8306 21.5332 55.1388C21.5332 55.4469 21.6586 55.7492 21.8765 55.9671C22.0945 56.1851 22.3968 56.3105 22.7049 56.3105C23.0131 56.3105 23.3154 56.1851 23.5333 55.9671C23.7512 55.7492 23.8766 55.4469 23.8766 55.1388C23.8766 54.8306 23.7512 54.5283 23.5333 54.3104C23.3154 54.0924 23.0131 53.967 22.7049 53.967Z" fill="#399A3A"/>
</g>
<defs>
<clipPath id="clip0_20_944">
<rect width="60" height="60" fill="white"/>
</clipPath>
</defs>
</svg>
