<svg width="48" height="48" viewBox="0 0 48 48" fill="none" xmlns="http://www.w3.org/2000/svg">
<rect width="48" height="48" rx="4" fill="#399A3A"/>
<g clip-path="url(#clip0_41_909)">
<path d="M30.9677 26.8671C30.4763 26.3555 29.8837 26.082 29.2556 26.082C28.6326 26.082 28.0348 26.3505 27.5232 26.8621L25.9226 28.4577C25.7909 28.3868 25.6592 28.3209 25.5326 28.2551C25.3502 28.1639 25.178 28.0778 25.0311 27.9866C23.5317 27.0343 22.1691 25.7933 20.8623 24.1876C20.2291 23.3872 19.8036 22.7135 19.4946 22.0297C19.91 21.6498 20.295 21.2547 20.6698 20.8748C20.8116 20.733 20.9535 20.5861 21.0953 20.4443C22.159 19.3805 22.159 18.0028 21.0953 16.939L19.7124 15.5562C19.5554 15.3992 19.3933 15.2371 19.2414 15.075C18.9374 14.7609 18.6183 14.4367 18.2891 14.1328C17.7977 13.6465 17.2102 13.3882 16.5922 13.3882C15.9742 13.3882 15.3765 13.6465 14.87 14.1328C14.8649 14.1379 14.8649 14.1379 14.8598 14.143L13.1376 15.8804C12.4892 16.5287 12.1195 17.3189 12.0384 18.2358C11.9169 19.7149 12.3525 21.0926 12.6868 21.9943C13.5074 24.2078 14.7332 26.2593 16.5618 28.4577C18.7804 31.1069 21.4499 33.1989 24.4992 34.6729C25.6643 35.225 27.2193 35.8784 28.9567 35.9899C29.0631 35.9949 29.1745 36 29.2759 36C30.446 36 31.4286 35.5796 32.1986 34.7438C32.2036 34.7337 32.2138 34.7286 32.2188 34.7185C32.4822 34.3993 32.7862 34.1106 33.1053 33.8016C33.3231 33.594 33.546 33.3761 33.7638 33.1482C34.2652 32.6265 34.5286 32.0186 34.5286 31.3956C34.5286 30.7675 34.2602 30.1647 33.7486 29.6582L30.9677 26.8671ZM32.7811 32.201C32.776 32.201 32.776 32.206 32.7811 32.201C32.5835 32.4137 32.3809 32.6062 32.1631 32.819C31.8339 33.133 31.4995 33.4623 31.1855 33.832C30.6739 34.3791 30.0711 34.6374 29.2809 34.6374C29.2049 34.6374 29.1239 34.6374 29.0479 34.6324C27.5435 34.5361 26.1455 33.9485 25.0969 33.4471C22.2299 32.0591 19.7124 30.0887 17.6205 27.5915C15.8932 25.5096 14.7383 23.5848 13.9734 21.5181C13.5023 20.2568 13.3301 19.2742 13.4061 18.3472C13.4567 17.7546 13.6847 17.2632 14.1051 16.8428L15.8324 15.1155C16.0806 14.8825 16.344 14.7559 16.6023 14.7559C16.9214 14.7559 17.1798 14.9483 17.3419 15.1104C17.3469 15.1155 17.352 15.1206 17.3571 15.1256C17.666 15.4144 17.9598 15.7132 18.2688 16.0323C18.4258 16.1944 18.5879 16.3565 18.75 16.5237L20.1329 17.9065C20.6698 18.4434 20.6698 18.9399 20.1329 19.4768C19.986 19.6237 19.8441 19.7706 19.6973 19.9124C19.2718 20.348 18.8665 20.7533 18.4258 21.1484C18.4157 21.1585 18.4056 21.1635 18.4005 21.1737C17.9649 21.6093 18.0459 22.0348 18.1371 22.3235C18.1422 22.3387 18.1473 22.3539 18.1523 22.3691C18.512 23.2403 19.0185 24.0609 19.7884 25.0386L19.7935 25.0436C21.1915 26.7658 22.6656 28.1082 24.2915 29.1364C24.4992 29.2681 24.712 29.3745 24.9146 29.4758C25.0969 29.567 25.2692 29.6531 25.416 29.7443C25.4363 29.7544 25.4566 29.7696 25.4768 29.7797C25.6491 29.8658 25.8111 29.9064 25.9783 29.9064C26.3987 29.9064 26.6621 29.643 26.7482 29.5569L28.4806 27.8245C28.6528 27.6523 28.9263 27.4446 29.2455 27.4446C29.5595 27.4446 29.8178 27.6421 29.9749 27.8144C29.9799 27.8194 29.9799 27.8194 29.985 27.8245L32.776 30.6155C33.2978 31.1322 33.2978 31.664 32.7811 32.201Z" fill="white"/>
<path d="M24.9711 17.709C26.2982 17.9318 27.5038 18.5599 28.4662 19.5224C29.4286 20.4848 30.0516 21.6903 30.2796 23.0175C30.3353 23.3518 30.624 23.5848 30.9533 23.5848C30.9938 23.5848 31.0292 23.5797 31.0698 23.5747C31.4446 23.5139 31.6928 23.1593 31.632 22.7845C31.3585 21.1787 30.5987 19.7148 29.4387 18.5549C28.2788 17.3949 26.8149 16.6351 25.2091 16.3616C24.8343 16.3008 24.4848 16.549 24.419 16.9188C24.3531 17.2885 24.5962 17.6482 24.9711 17.709Z" fill="white"/>
<path d="M35.9723 22.5869C35.5215 19.9428 34.2754 17.5367 32.3607 15.622C30.446 13.7073 28.04 12.4612 25.3958 12.0104C25.0261 11.9446 24.6766 12.1978 24.6107 12.5676C24.5499 12.9425 24.7981 13.292 25.173 13.3578C27.5334 13.758 29.6862 14.8774 31.3983 16.5844C33.1104 18.2965 34.2248 20.4493 34.6249 22.8098C34.6807 23.1441 34.9694 23.3771 35.2986 23.3771C35.3392 23.3771 35.3746 23.372 35.4151 23.367C35.7849 23.3113 36.0382 22.9567 35.9723 22.5869Z" fill="white"/>
</g>
<defs>
<clipPath id="clip0_41_909">
<rect width="24" height="24" fill="white" transform="translate(12 12)"/>
</clipPath>
</defs>
</svg>
