<svg width="48" height="48" viewBox="0 0 48 48" fill="none" xmlns="http://www.w3.org/2000/svg">
<rect width="48" height="48" rx="4" fill="#399A3A"/>
<g clip-path="url(#clip0_41_980)">
<path d="M32.4839 15.5183C30.2171 13.2515 27.2064 12 23.9997 12C20.793 12 17.7823 13.2465 15.5155 15.5133C11.1427 19.8861 10.8261 26.8725 14.7213 31.6071C14.1835 32.7079 13.5452 33.4417 12.8315 33.7935C12.3942 34.0096 12.1479 34.4821 12.2183 34.9646C12.2937 35.4521 12.6656 35.8291 13.1532 35.9045C13.4196 35.9447 13.7061 35.9698 14.0026 35.9698C15.4753 35.9698 17.0233 35.4622 18.3151 34.5726C20.0541 35.5074 22.0093 36 23.9997 36C27.2064 36 30.2171 34.7535 32.4839 32.4867C34.7507 30.2199 35.9972 27.2042 35.9972 24.0025C35.9972 20.8008 34.7507 17.7851 32.4839 15.5183ZM31.5239 31.5267C29.5134 33.5372 26.8395 34.6429 23.9997 34.6429C22.0998 34.6429 20.2351 34.1353 18.6116 33.1803C18.5061 33.12 18.3854 33.0848 18.2698 33.0848C18.1241 33.0848 17.9733 33.1351 17.8527 33.2255C16.3146 34.4168 14.7666 34.5927 14.088 34.6077C14.8973 34.0046 15.5758 33.0697 16.1438 31.768C16.2493 31.5267 16.2041 31.2452 16.0282 31.0442C12.3088 26.8423 12.5048 20.439 16.4755 16.4683C18.486 14.4578 21.1599 13.352 23.9997 13.352C26.8445 13.352 29.5134 14.4578 31.5239 16.4683C35.6755 20.6249 35.6755 27.3801 31.5239 31.5267Z" fill="white"/>
<path d="M27.0452 18.5038C25.9596 18.5038 24.9392 18.926 24.1702 19.6951L23.9994 19.8659L23.8285 19.6951C23.0595 18.926 22.0391 18.5038 20.9535 18.5038C19.8729 18.5038 18.8525 18.926 18.0886 19.69C17.3196 20.459 16.8974 21.4793 16.9024 22.56C16.9024 23.6456 17.3296 24.6609 18.0936 25.4299L23.5168 30.8532C23.6475 30.9838 23.8234 31.0542 23.9943 31.0542C24.1652 31.0542 24.3411 30.9889 24.4718 30.8582L29.9101 25.44C30.6791 24.671 31.1013 23.6507 31.1013 22.57C31.1013 21.4844 30.6791 20.4641 29.9152 19.6951C29.1462 18.926 28.1258 18.5038 27.0452 18.5038ZM28.9501 24.48L23.9943 29.4157L19.0486 24.4699C18.5359 23.9572 18.2544 23.2787 18.2544 22.5549C18.2544 21.8312 18.5359 21.1526 19.0435 20.645C19.5512 20.1374 20.2297 19.8559 20.9535 19.8559C21.6773 19.8559 22.3558 20.1374 22.8685 20.65L23.5219 21.3034C23.7883 21.5698 24.2155 21.5698 24.4819 21.3034L25.1302 20.655C25.6429 20.1424 26.3214 19.8609 27.0452 19.8609C27.764 19.8609 28.4425 20.1424 28.9552 20.655C29.4678 21.1677 29.7493 21.8463 29.7443 22.565C29.7443 23.2888 29.4628 23.9673 28.9501 24.48Z" fill="white"/>
</g>
<defs>
<clipPath id="clip0_41_980">
<rect width="24" height="24" fill="white" transform="translate(12 12)"/>
</clipPath>
</defs>
</svg>
