<svg width="60" height="60" viewBox="0 0 60 60" fill="none" xmlns="http://www.w3.org/2000/svg">
<path d="M44.6689 3.93C44.1079 3.60609 43.3898 3.79851 43.0659 4.35949C42.742 4.92163 42.9344 5.63858 43.4954 5.96248C44.0563 6.28756 44.7744 6.09514 45.0984 5.53299C45.4223 4.97214 45.2298 4.25507 44.6689 3.93Z" fill="#399A3A"/>
<path d="M30 0C29.3522 0 28.8265 0.5257 28.8265 1.17351C28.8265 1.82132 29.3522 2.34702 30 2.34702C30.6479 2.34702 31.1736 1.82132 31.1736 1.17351C31.1736 0.5257 30.6479 0 30 0Z" fill="#399A3A"/>
<path d="M30 31.2148C29.3522 31.2148 28.8265 31.7405 28.8265 32.3883C28.8265 33.0361 29.3522 33.5618 30 33.5618C30.6479 33.5618 31.1736 33.0361 31.1736 32.3883C31.1736 31.7407 30.6479 31.2148 30 31.2148Z" fill="#399A3A"/>
<path d="M16.9345 4.35949C16.6106 3.79851 15.8924 3.60609 15.3315 3.93C14.7705 4.25507 14.5781 4.97202 14.902 5.53299C15.2259 6.09514 15.944 6.28756 16.505 5.96248C17.0658 5.63858 17.2584 4.92151 16.9345 4.35949Z" fill="#399A3A"/>
<path d="M30 4.69409C29.352 4.69409 28.8265 5.21944 28.8265 5.8676V10.5616C28.8265 11.2098 29.352 11.7352 30 11.7352C30.6481 11.7352 31.1736 11.2098 31.1736 10.5616V5.86748C31.1736 5.21944 30.6481 4.69409 30 4.69409Z" fill="#399A3A"/>
<path d="M21.6285 12.4905L19.2816 8.4244C18.9574 7.86308 18.2399 7.6703 17.6786 7.99468C17.1173 8.3187 16.9248 9.03623 17.2489 9.59767L19.5959 13.6639C19.8134 14.0405 20.2077 14.2509 20.6134 14.2509C20.8123 14.2509 21.0142 14.2002 21.1989 14.0935C21.7601 13.7695 21.9525 13.0519 21.6285 12.4905Z" fill="#399A3A"/>
<path d="M42.3217 7.99509C41.76 7.67095 41.0427 7.86337 40.7186 8.42481L38.3716 12.491C38.0476 13.0522 38.24 13.7698 38.8013 14.0939C38.9861 14.2005 39.1878 14.2512 39.3868 14.2512C39.7925 14.2512 40.1868 14.0406 40.4043 13.6642L42.7514 9.59809C43.0754 9.03676 42.883 8.31899 42.3217 7.99509Z" fill="#399A3A"/>
<path d="M54.6432 32.3805C54.6431 32.3661 54.6422 32.3518 54.6415 32.3372C54.6408 32.3222 54.6399 32.3072 54.6387 32.2921C54.6379 32.2825 54.6378 32.2728 54.6367 32.2633C54.6353 32.2502 54.633 32.237 54.6312 32.224C54.6291 32.2094 54.6267 32.1947 54.6241 32.18C54.6221 32.1689 54.6208 32.1578 54.6185 32.1469C54.6161 32.136 54.6129 32.1252 54.6104 32.1143C54.6067 32.0993 54.6028 32.0843 54.5985 32.0693C54.5951 32.0573 54.5922 32.045 54.5885 32.033C54.5858 32.0246 54.5822 32.0163 54.5793 32.0078C54.5738 31.9919 54.5679 31.9761 54.5619 31.9602C54.5569 31.9477 54.5524 31.935 54.5471 31.9227C54.5443 31.9163 54.5409 31.91 54.538 31.9035C54.5305 31.887 54.5225 31.8708 54.5143 31.8545C54.508 31.8421 54.5019 31.8297 54.4951 31.8176C54.4939 31.8155 54.4931 31.8134 54.4919 31.8113L47.4601 19.3721C47.4566 19.3659 47.4521 19.3607 47.4485 19.3546C47.4289 19.3212 47.4076 19.2887 47.3846 19.2574C47.3787 19.2492 47.3729 19.2409 47.3668 19.2328C47.3376 19.195 47.3064 19.1583 47.2725 19.1241C47.272 19.1236 47.2714 19.1231 47.2708 19.1225C47.2387 19.0902 47.2039 19.0601 47.1678 19.0314C47.1588 19.0242 47.1497 19.0175 47.1405 19.0107C47.1115 18.9891 47.081 18.9687 47.0495 18.9493C47.0393 18.9431 47.0293 18.9366 47.0189 18.9307C46.9789 18.908 46.9377 18.8868 46.8943 18.8685C46.8939 18.8682 46.8934 18.868 46.8928 18.8678C46.8927 18.8677 46.8924 18.8677 46.8923 18.8675C46.8487 18.8493 46.8044 18.8347 46.76 18.822C46.7476 18.8184 46.7351 18.8157 46.7225 18.8126C46.6876 18.8038 46.6526 18.7968 46.6174 18.7913C46.6049 18.7894 46.5926 18.7873 46.5799 18.7857C46.5329 18.78 46.4859 18.7764 46.4392 18.7764C46.4391 18.7764 46.4389 18.7764 46.4387 18.7764H46.4385C46.4365 18.7764 46.4346 18.7764 46.4326 18.7764H30.0001H29.997H13.5731C13.5244 18.7763 13.4758 18.78 13.4269 18.786C13.4156 18.7874 13.4044 18.7894 13.3932 18.7911C13.3577 18.7966 13.3222 18.8038 13.2868 18.8127C13.2737 18.816 13.2606 18.819 13.2478 18.8228C13.2094 18.8338 13.1714 18.8469 13.1336 18.862C13.1273 18.8646 13.1208 18.8664 13.1145 18.8691C13.1135 18.8695 13.1123 18.8698 13.1112 18.8702C13.0688 18.8883 13.0285 18.9091 12.9895 18.9315C12.9796 18.9372 12.9704 18.9435 12.9608 18.9493C12.9291 18.9686 12.8987 18.9891 12.8695 19.011C12.8599 19.0181 12.8504 19.0254 12.8409 19.0329C12.8083 19.0588 12.7771 19.0862 12.7478 19.1152C12.744 19.1189 12.7399 19.1223 12.7361 19.1262C12.7025 19.1603 12.6712 19.1965 12.6423 19.2342C12.6367 19.2414 12.6318 19.249 12.6264 19.2562C12.6033 19.2878 12.5818 19.3205 12.5621 19.3541C12.5586 19.3602 12.5541 19.3655 12.5506 19.3716L5.52351 31.7849C5.52327 31.7853 5.52316 31.7855 5.52292 31.7859L5.50898 31.8104C5.5078 31.8125 5.50698 31.8147 5.50569 31.8168C5.49843 31.8298 5.49187 31.8432 5.48507 31.8565C5.47663 31.873 5.46843 31.8896 5.46081 31.9066C5.45847 31.9117 5.45589 31.9169 5.45355 31.922C5.4478 31.9353 5.44288 31.9489 5.43761 31.9625C5.43128 31.9786 5.42519 31.9948 5.41956 32.0113C5.4171 32.0184 5.41429 32.0254 5.41206 32.0324C5.40796 32.0453 5.40491 32.0586 5.40116 32.0717C5.39683 32.0871 5.39249 32.1026 5.38886 32.1184C5.38663 32.1278 5.38394 32.1371 5.38195 32.1464C5.37948 32.1583 5.37796 32.1705 5.37585 32.1824C5.37316 32.1977 5.37046 32.2129 5.36835 32.2285C5.36683 32.24 5.36484 32.2514 5.36366 32.2629C5.36249 32.2735 5.36238 32.2841 5.36144 32.2947C5.36015 32.3103 5.35898 32.3257 5.35839 32.3414C5.35792 32.3543 5.35722 32.3672 5.3571 32.3801C5.3571 32.3828 5.35675 32.3855 5.35675 32.3882C5.35675 32.3955 5.35769 32.4026 5.35781 32.4099C5.35804 32.4254 5.35863 32.4408 5.35945 32.4564C5.36015 32.4692 5.36085 32.482 5.36202 32.4947C5.36296 32.5056 5.36425 32.5163 5.36554 32.5271C5.3673 32.5418 5.36941 32.5565 5.37175 32.5712C5.37363 32.5828 5.37538 32.5945 5.37761 32.6059C5.37984 32.6179 5.38218 32.6297 5.38488 32.6416C5.38804 32.6557 5.39167 32.6697 5.39531 32.6837C5.398 32.6942 5.40081 32.7046 5.40374 32.715C5.40738 32.7276 5.41101 32.74 5.41499 32.7524C5.41933 32.7658 5.42425 32.7789 5.42905 32.792C5.4328 32.8022 5.43667 32.8124 5.44066 32.8226C5.44558 32.8348 5.45038 32.847 5.45566 32.8591C5.46093 32.8712 5.46679 32.8832 5.47253 32.8952C5.4778 32.906 5.4832 32.9168 5.4887 32.9276C5.49468 32.939 5.50054 32.9503 5.50687 32.9616C5.51284 32.9723 5.51905 32.9827 5.52538 32.9932C5.53241 33.005 5.5398 33.0166 5.5473 33.028C5.55421 33.0387 5.56136 33.0491 5.56862 33.0596C5.57507 33.0687 5.5814 33.0778 5.58819 33.087C5.59687 33.0987 5.60577 33.1101 5.61491 33.1216C5.62323 33.1319 5.63191 33.1418 5.64046 33.1519C5.64538 33.1577 5.64948 33.1637 5.65464 33.1695L29.2714 59.6082C29.3004 59.6407 29.3313 59.6713 29.3634 59.7C29.3681 59.7041 29.3731 59.7076 29.3778 59.7117C29.4117 59.7411 29.4472 59.7682 29.4839 59.7934C29.4958 59.8016 29.508 59.8093 29.5202 59.8171C29.5544 59.8386 29.5896 59.8583 29.6257 59.8764C29.6356 59.8813 29.6451 59.8868 29.6552 59.8915C29.7008 59.9124 29.7475 59.9304 29.7956 59.9455C29.8071 59.9491 29.8188 59.9517 29.8304 59.9549C29.869 59.9656 29.9081 59.9744 29.9477 59.9813C29.9622 59.9838 29.9766 59.9864 29.9913 59.9884C30.0425 59.9952 30.094 59.9999 30.1463 59.9999C30.1476 59.9999 30.1488 59.9999 30.15 59.9999C30.2025 59.9998 30.2541 59.9948 30.3055 59.9878C30.3201 59.9858 30.3344 59.9832 30.3491 59.9807C30.3888 59.9736 30.4282 59.9647 30.4668 59.9537C30.4784 59.9504 30.4902 59.9478 30.5016 59.9441C30.5497 59.9289 30.5966 59.9106 30.6423 59.8892C30.6522 59.8846 30.6617 59.879 30.6716 59.8741C30.7078 59.856 30.743 59.8359 30.7773 59.814C30.7896 59.8062 30.8016 59.7983 30.8137 59.79C30.85 59.7648 30.8852 59.7377 30.9187 59.7084C30.9238 59.704 30.9293 59.7001 30.9343 59.6957C30.9664 59.6665 30.9973 59.6357 31.0264 59.6027L54.3501 33.165C54.3543 33.1602 54.3577 33.1551 54.3618 33.1503C54.3696 33.1412 54.3773 33.1321 54.3848 33.1228C54.3949 33.1103 54.4045 33.0977 54.414 33.0848C54.4205 33.0759 54.427 33.0669 54.4333 33.0579C54.4399 33.0485 54.4462 33.0389 54.4525 33.0293C54.4607 33.0168 54.4685 33.0041 54.4762 32.9914C54.4825 32.9808 54.4888 32.9705 54.4948 32.9598C54.5005 32.9496 54.5057 32.9393 54.5111 32.9289C54.5171 32.9173 54.5228 32.9055 54.5285 32.8936C54.5343 32.8814 54.5403 32.8694 54.5457 32.8571C54.5505 32.846 54.5547 32.8349 54.5592 32.8238C54.5635 32.8129 54.5676 32.8019 54.5716 32.7907C54.5765 32.7773 54.5817 32.7638 54.5861 32.7502C54.5897 32.7389 54.5928 32.7276 54.5962 32.7162C54.5995 32.705 54.6023 32.6936 54.6052 32.6822C54.6088 32.6679 54.6128 32.6537 54.6159 32.6392C54.6182 32.6286 54.6202 32.6178 54.6222 32.6069C54.6245 32.5943 54.6264 32.5817 54.6284 32.569C54.6306 32.5543 54.633 32.5396 54.6347 32.5247C54.6359 32.5151 54.637 32.5054 54.6378 32.4957C54.6391 32.4816 54.6397 32.4675 54.6405 32.4532C54.6413 32.4381 54.642 32.423 54.6422 32.408C54.6424 32.4017 54.6432 32.3955 54.6432 32.3891C54.6435 32.3857 54.6432 32.3832 54.6432 32.3805ZM44.6743 21.1229L40.8695 30.2023L32.6463 21.1229H44.6743ZM27.3725 21.1229L19.2237 30.215L15.3473 21.1229H27.3725ZM13.4228 22.5936L17.0986 31.2149H8.54294L13.4228 22.5936ZM9.15208 33.5619H18.0991L26.2694 52.724L9.15208 33.5619ZM30.1374 55.8122L20.6505 33.5619H25.3062C25.9542 33.5619 26.4797 33.0366 26.4797 32.3884C26.4797 31.7403 25.9542 31.2149 25.3062 31.2149H21.4793L30.0048 21.7024L38.6202 31.2149H34.6942C34.0462 31.2149 33.5207 31.7403 33.5207 32.3884C33.5207 33.0366 34.0462 33.5619 34.6942 33.5619H39.4618L30.1374 55.8122ZM33.9864 52.7001L42.0065 33.5619H50.87L33.9864 52.7001ZM42.9898 31.2149L46.5953 22.6113L51.4588 31.2149H42.9898Z" fill="#181818"/>
</svg>
