<svg width="60" height="60" viewBox="0 0 60 60" fill="none" xmlns="http://www.w3.org/2000/svg">
<path d="M50.0033 39.5329H41.6586V20.9095C41.6586 20.2494 41.1234 19.7144 40.4634 19.7144H19.5366C18.8766 19.7144 18.3414 20.2494 18.3414 20.9095V39.5329H9.99666C4.48452 39.5329 0 44.0175 0 49.5296C0 55.0417 4.48452 59.5263 9.99666 59.5263H50.0033C55.5155 59.5263 60 55.0419 60 49.5296C60 44.0174 55.5155 39.5329 50.0033 39.5329ZM28.6606 22.1047H31.3393V28.3311H28.6606V22.1047ZM20.7318 22.1047H26.2701V29.5263C26.2701 30.1864 26.8053 30.7215 27.4653 30.7215H32.5345C33.1945 30.7215 33.7297 30.1864 33.7297 29.5263V22.1047H39.2679V39.5329H20.7318V22.1047ZM50.0032 57.1359H9.99666C5.80253 57.1359 2.39039 53.7237 2.39039 49.5296C2.39039 45.3355 5.80253 41.9233 9.99666 41.9233H50.0032C54.1974 41.9233 57.6095 45.3355 57.6095 49.5296C57.6095 53.7236 54.1974 57.1359 50.0032 57.1359Z" fill="#181818"/>
<path d="M20.1173 45.2649C17.7998 45.2649 15.9142 47.1503 15.9142 49.4678C15.9142 51.7853 17.7997 53.6709 20.1173 53.6709C22.4348 53.6709 24.3202 51.7854 24.3202 49.4678C24.3202 47.1504 22.4348 45.2649 20.1173 45.2649ZM20.1173 51.2805C19.1178 51.2805 18.3047 50.4673 18.3047 49.4679C18.3047 48.4686 19.1179 47.6554 20.1173 47.6554C21.1167 47.6554 21.9298 48.4686 21.9298 49.4679C21.9298 50.4673 21.1169 51.2805 20.1173 51.2805Z" fill="#181818"/>
<path d="M10.2348 45.2649C7.91729 45.2649 6.03186 47.1503 6.03186 49.4678C6.03186 51.7853 7.91729 53.6709 10.2348 53.6709C12.5523 53.6709 14.4377 51.7854 14.4377 49.4678C14.4377 47.1504 12.5523 45.2649 10.2348 45.2649ZM10.2348 51.2805C9.23529 51.2805 8.42225 50.4673 8.42225 49.4679C8.42225 48.4686 9.23541 47.6554 10.2348 47.6554C11.2342 47.6554 12.0473 48.4686 12.0473 49.4679C12.0473 50.4673 11.2342 51.2805 10.2348 51.2805Z" fill="#399A3A"/>
<path d="M29.9999 45.2649C27.6824 45.2649 25.797 47.1503 25.797 49.4678C25.797 51.7853 27.6824 53.6709 29.9999 53.6709C32.3174 53.6709 34.203 51.7854 34.203 49.4678C34.203 47.1504 32.3174 45.2649 29.9999 45.2649ZM29.9999 51.2805C29.0004 51.2805 28.1874 50.4673 28.1874 49.4679C28.1874 48.4686 29.0006 47.6554 29.9999 47.6554C30.9993 47.6554 31.8125 48.4686 31.8125 49.4679C31.8125 50.4673 30.9994 51.2805 29.9999 51.2805Z" fill="#399A3A"/>
<path d="M39.8826 45.2649C37.5651 45.2649 35.6797 47.1503 35.6797 49.4678C35.6797 51.7853 37.5651 53.6709 39.8826 53.6709C42.2001 53.6709 44.0856 51.7854 44.0856 49.4678C44.0856 47.1504 42.2 45.2649 39.8826 45.2649ZM39.8826 51.2805C38.8831 51.2805 38.0701 50.4673 38.0701 49.4679C38.0701 48.4686 38.8832 47.6554 39.8826 47.6554C40.8821 47.6554 41.6951 48.4686 41.6951 49.4679C41.6951 50.4673 40.8821 51.2805 39.8826 51.2805Z" fill="#181818"/>
<path d="M49.7651 45.2649C47.4476 45.2649 45.5621 47.1503 45.5621 49.4678C45.5621 51.7853 47.4475 53.6709 49.7651 53.6709C52.0827 53.6709 53.968 51.7854 53.968 49.4678C53.9682 47.1504 52.0826 45.2649 49.7651 45.2649ZM49.7651 51.2805C48.7656 51.2805 47.9526 50.4673 47.9526 49.4679C47.9526 48.4686 48.7657 47.6554 49.7651 47.6554C50.7645 47.6554 51.5776 48.4686 51.5776 49.4679C51.5776 50.4673 50.7646 51.2805 49.7651 51.2805Z" fill="#399A3A"/>
<path d="M36.5857 35.7168H36.0318C35.3718 35.7168 34.8366 36.2519 34.8366 36.912C34.8366 37.5721 35.3718 38.1072 36.0318 38.1072H36.5857C37.2457 38.1072 37.7809 37.5721 37.7809 36.912C37.7809 36.2519 37.2457 35.7168 36.5857 35.7168Z" fill="#399A3A"/>
<path d="M32.3388 35.7168H23.4142C22.7543 35.7168 22.2191 36.2519 22.2191 36.912C22.2191 37.5721 22.7543 38.1072 23.4142 38.1072H32.3388C32.9988 38.1072 33.534 37.5721 33.534 36.912C33.534 36.2519 32.9989 35.7168 32.3388 35.7168Z" fill="#399A3A"/>
</svg>
