<svg width="128" height="128" viewBox="0 0 128 128" fill="none" xmlns="http://www.w3.org/2000/svg">
<rect width="128" height="128" fill="white"/>
<path d="M5.3519 6H122.648C125.591 6 128 8.41814 128 11.3732V116.628C128 119.583 125.591 122 122.648 122H5.3519C2.40854 122 0 119.583 0 116.628V11.3732C0 8.41814 2.40854 6 5.3519 6ZM29.0483 33.6353L36.5812 33.7928L36.3213 26.2941L20.9833 26.626L21.0464 98.2082C24.7214 99.2794 67.3473 99.1563 73.3064 98.5541C73.039 95.8125 71.8858 93.6181 70.3454 91.5598L28.961 91.4535L29.0483 33.6353ZM90.9443 35.9872C104.531 40.294 101.714 77.3045 96.3621 84.9187C92.5989 90.2752 88.3473 89.4371 82.1207 91.4973C81.3547 94.4086 82.4058 95.7799 84.0232 98.1169C103.024 98.5513 108.748 85.3503 109.246 66.737C109.72 49.0502 107.747 29.4897 90.9229 27.9796L90.9443 35.9872ZM90.2321 98.9204L83.3036 99.2113L56.9369 34.6122L49.7047 34.4472C50.0836 38.7978 75.9202 101.851 79.8412 111.364L89.8914 111.386L90.2321 98.9204ZM44.8988 25.2715L52.3677 25.4169C52.3482 22.3295 49.6267 16.7344 48.3491 13.5947L37.6722 13.7858L37.8106 90.6098L45.5413 90.9464L44.8988 25.2715ZM90.0176 88.737L89.9387 13.6665L82.1504 13.7075L82.6815 90.2845L90.0176 88.737ZM46.2804 33.5169L81.2609 33.5504L81.2665 26.214L45.9499 26.2503L46.2804 33.5169ZM37.7019 111.234L45.4856 111.197L45.5627 99.9198L37.61 99.8769L37.7019 111.234Z" fill="#399A3A"/>
</svg>
