<svg width="30" height="30" viewBox="0 0 30 30" fill="none" xmlns="http://www.w3.org/2000/svg">
<g clip-path="url(#clip0_6_108)">
<path d="M27.5768 4.26123C26.0059 2.69032 23.9262 1.83172 21.7066 1.83172C19.487 1.83172 17.4009 2.69668 15.83 4.26759L15.0095 5.08802L14.1764 4.25487C12.6055 2.68396 10.5131 1.81264 8.29342 1.81264C6.08016 1.81264 3.99409 2.6776 2.42954 4.24215C0.858629 5.81306 -0.00632514 7.89913 3.48253e-05 10.1188C3.48253e-05 12.3384 0.871349 14.4181 2.44226 15.989L14.3863 27.933C14.5516 28.0984 14.7742 28.1874 14.9905 28.1874C15.2067 28.1874 15.4293 28.1047 15.5947 27.9394L27.5641 16.0144C29.135 14.4435 30 12.3575 30 10.1378C30.0063 7.91821 29.1477 5.83214 27.5768 4.26123ZM26.3557 14.7997L14.9905 26.1204L3.65065 14.7806C2.4041 13.5341 1.71722 11.8805 1.71722 10.1188C1.71722 8.35705 2.39774 6.70345 3.64429 5.46326C4.88448 4.22307 6.53807 3.53619 8.29342 3.53619C10.0551 3.53619 11.7151 4.22307 12.9616 5.46962L14.399 6.90697C14.7361 7.24405 15.2767 7.24405 15.6137 6.90697L17.0384 5.48234C18.2849 4.23579 19.9449 3.54891 21.7002 3.54891C23.4556 3.54891 25.1092 4.23579 26.3557 5.47598C27.6023 6.72253 28.2828 8.37612 28.2828 10.1378C28.2891 11.8995 27.6023 13.5531 26.3557 14.7997Z" fill="#181818"/>
</g>
<defs>
<clipPath id="clip0_6_108">
<rect width="30" height="30" fill="white"/>
</clipPath>
</defs>
</svg>
