<svg width="48" height="48" viewBox="0 0 48 48" fill="none" xmlns="http://www.w3.org/2000/svg">
<rect width="48" height="48" rx="4" fill="#399A3A"/>
<path d="M23.9951 12C18.692 12 14.375 16.317 14.375 21.6201C14.375 22.2239 14.4303 22.8327 14.5461 23.4264C14.5511 23.4616 14.5712 23.5673 14.6115 23.7484C14.7574 24.3975 14.9737 25.0365 15.2555 25.6453C16.292 28.0855 18.5712 31.834 23.5725 35.8491C23.6983 35.9497 23.8492 36 24.0002 36C24.1511 36 24.302 35.9497 24.4278 35.8491C29.4241 31.834 31.7083 28.0855 32.7448 25.6453C33.0266 25.0365 33.2429 24.4025 33.3888 23.7484C33.4291 23.5673 33.4492 23.4616 33.4542 23.4264C33.5649 22.8327 33.6253 22.2239 33.6253 21.6201C33.6152 16.317 29.2983 12 23.9951 12ZM32.1058 23.1899C32.1058 23.2 32.1008 23.2101 32.1008 23.2201C32.0958 23.2453 32.0807 23.3208 32.0555 23.4365C32.0555 23.4415 32.0555 23.4415 32.0555 23.4465C31.9297 24.0101 31.7436 24.5585 31.497 25.0868C31.492 25.0918 31.492 25.1019 31.4869 25.1069C30.5461 27.3358 28.4832 30.7371 23.9951 34.4453C19.5071 30.7371 17.4442 27.3358 16.5033 25.1069C16.4983 25.1019 16.4983 25.0918 16.4932 25.0868C16.2517 24.5635 16.0656 24.0101 15.9347 23.4465C15.9347 23.4415 15.9347 23.4415 15.9347 23.4365C15.9046 23.3208 15.8945 23.2453 15.8895 23.2201C15.8895 23.2101 15.8844 23.2 15.8844 23.1849C15.7838 22.6667 15.7335 22.1434 15.7335 21.6151C15.7335 17.0616 19.4417 13.3535 23.9951 13.3535C28.5486 13.3535 32.2568 17.0616 32.2568 21.6151C32.2568 22.1484 32.2064 22.6767 32.1058 23.1899Z" fill="white"/>
<path d="M23.9949 15.6176C20.6289 15.6176 17.8867 18.3597 17.8867 21.7258C17.8867 25.0918 20.6289 27.8339 23.9949 27.8339C27.3609 27.8339 30.1031 25.0918 30.1031 21.7258C30.1031 18.3597 27.3609 15.6176 23.9949 15.6176ZM23.9949 26.4754C21.3735 26.4754 19.2452 24.3421 19.2452 21.7258C19.2452 19.1094 21.3785 16.9761 23.9949 16.9761C26.6112 16.9761 28.7446 19.1094 28.7446 21.7258C28.7446 24.3421 26.6163 26.4754 23.9949 26.4754Z" fill="white"/>
</svg>
