<svg width="60" height="60" viewBox="0 0 60 60" fill="none" xmlns="http://www.w3.org/2000/svg">
<g clip-path="url(#clip0_20_779)">
<path d="M20.836 24.2486C21.2942 23.7903 21.2942 23.0483 20.836 22.5915C20.3792 22.1332 19.6371 22.1332 19.1789 22.5915C18.7207 23.0483 18.7207 23.7903 19.1789 24.2486C19.6371 24.7054 20.3792 24.7054 20.836 24.2486Z" fill="#399A3A"/>
<path d="M32.4375 25.9058C33.8081 24.5353 33.8081 22.3051 32.4375 20.9345C31.0638 19.5608 28.8391 19.5603 27.4653 20.9345C26.0911 22.3083 26.0911 24.5316 27.4653 25.9058C28.8359 27.2764 31.0665 27.2768 32.4375 25.9058ZM29.1224 22.5916C29.5806 22.1339 30.3222 22.1339 30.7804 22.5916C31.2368 23.0485 31.2368 23.7914 30.7804 24.2483C30.3231 24.7051 29.5793 24.7056 29.1224 24.2483C28.6651 23.7914 28.6633 23.0508 29.1224 22.5916Z" fill="#181818"/>
<path d="M27.4653 34.1913C26.0911 35.5655 26.0911 37.7897 27.4653 39.1639C28.8391 40.5377 31.0633 40.5382 32.4375 39.1639C33.8085 37.7929 33.8085 35.5623 32.4375 34.1913C31.0638 32.818 28.8391 32.8175 27.4653 34.1913ZM30.7804 37.5068C30.3222 37.9646 29.5802 37.9646 29.1224 37.5068C28.6651 37.0495 28.6633 36.308 29.1224 35.8488C29.5806 35.3906 30.3222 35.3911 30.7804 35.8488C31.2373 36.3057 31.2373 37.0495 30.7804 37.5068Z" fill="#181818"/>
<path d="M20.5156 31.9359C20.6424 32.5712 21.2603 32.9819 21.8943 32.8551L38.4667 29.5399C39.1012 29.4131 39.5127 28.7956 39.3859 28.1611C39.2591 27.5262 38.6416 27.1152 38.0071 27.242L21.4347 30.5571C20.7998 30.6839 20.3883 31.3014 20.5156 31.9359Z" fill="#181818"/>
<path d="M35.6259 6.62988C35.315 6.62988 35.017 6.75302 34.7973 6.97275L22.494 19.276C22.0362 19.7338 22.0362 20.4758 22.494 20.9336C22.9518 21.3914 23.6938 21.3914 24.1511 20.9336L35.6259 9.45886L50.5407 24.3741L24.2321 50.6827L9.31684 35.7679L17.5222 27.5625C17.98 27.1052 17.98 26.3631 17.5222 25.9054C17.0645 25.4481 16.3224 25.4481 15.8647 25.9054L6.83119 34.9393C6.37343 35.3966 6.37343 36.1387 6.83119 36.5964L23.4036 53.1688C23.8613 53.6266 24.6029 53.6266 25.0607 53.1688L53.0268 25.2027C53.4846 24.7449 53.4846 24.0029 53.0268 23.5451L36.4544 6.97275C36.2347 6.75302 35.9367 6.62988 35.6259 6.62988Z" fill="#399A3A"/>
<path d="M57.9986 0.343786L52.9687 5.37323C50.034 3.1572 45.9814 3.12103 43.0714 5.28167L38.9515 1.04233C38.9474 1.03821 38.9438 1.03455 38.9396 1.03043C37.5728 -0.33645 35.3499 -0.351099 33.9665 1.03226L1.02999 34.1107C-0.343753 35.4844 -0.344211 37.7091 1.02999 39.0834L5.67812 43.731C4.63991 46.7024 5.38881 50.071 7.65886 52.3402C9.92845 54.6107 13.2971 55.3591 16.2685 54.3218L20.9166 58.9695C22.2903 60.3432 24.516 60.3428 25.887 58.9713L58.9691 26.0312C60.3433 24.6569 60.3433 22.4336 58.9691 21.0598C58.9649 21.0557 58.9613 21.0521 58.9572 21.0479L54.7183 16.929C56.8711 14.0387 56.8629 9.98427 54.6263 7.03079L59.6557 2.00135C60.1135 1.54358 60.1135 0.801549 59.6557 0.343786C59.1979 -0.113977 58.4564 -0.113977 57.9986 0.343786ZM52.2821 16.1719C52.0605 16.3939 51.9369 16.6951 51.9387 17.0091C51.941 17.3227 52.0692 17.6225 52.294 17.8409L57.3165 22.722C57.7711 23.1816 57.7661 23.9195 57.3133 24.3718L24.2317 57.3119C23.7744 57.7692 23.0305 57.7692 22.5737 57.3119L17.3763 52.1149C17.1519 51.8902 16.8517 51.7716 16.5477 51.7716C16.3792 51.7716 16.2094 51.8078 16.0501 51.8824C13.7965 52.9398 11.0903 52.4578 9.31642 50.6826C7.54121 48.9088 7.05919 46.2029 8.11662 43.9494C8.32628 43.5021 8.23381 42.972 7.88454 42.6228L2.68755 37.4258C2.23025 36.9685 2.23025 36.2251 2.68893 35.7659L35.6259 2.68753C36.0818 2.23206 36.8188 2.22931 37.2775 2.6825L42.1582 7.70507C42.5958 8.15551 43.3451 8.19946 43.8276 7.71743C45.8335 5.7106 48.9747 5.49637 51.2887 7.05322L49.5698 8.77212C48.2629 8.14956 46.6488 8.37798 45.5685 9.4583C44.198 10.8293 44.198 13.06 45.5685 14.4305C46.9422 15.8043 49.167 15.8047 50.5412 14.4305C51.6462 13.3255 51.8399 11.7045 51.2287 10.4278L52.9472 8.7094C54.4921 10.9964 54.3141 14.1403 52.2821 16.1719ZM48.8836 11.1154C49.3409 11.5727 49.3428 12.3143 48.8836 12.7734C48.4259 13.2312 47.6838 13.2312 47.2261 12.7734C46.7688 12.3161 46.7688 11.5723 47.2256 11.1154C47.6829 10.659 48.4268 10.6581 48.8836 11.1154Z" fill="#181818"/>
</g>
<defs>
<clipPath id="clip0_20_779">
<rect width="60" height="59.9999" fill="white"/>
</clipPath>
</defs>
</svg>
