<svg width="60" height="60" viewBox="0 0 60 60" fill="none" xmlns="http://www.w3.org/2000/svg">
<g clip-path="url(#clip0_20_836)">
<path d="M42.1669 29.5188C45.0266 25.436 46.5381 20.6432 46.5381 15.6586V4.54503C46.5381 3.99617 46.1568 3.52055 45.6212 3.40107L30.4893 0.0278092C30.3213 -0.00926972 30.1474 -0.00926972 29.9794 0.0278092L14.848 3.40107C14.312 3.52055 13.9311 3.99617 13.9311 4.54503V15.6586C13.9311 20.6432 15.4426 25.436 18.3023 29.5184C21.1619 33.6012 25.1495 36.6595 29.8343 38.3633C29.9634 38.41 30.0993 38.4338 30.2344 38.4338C30.3699 38.4338 30.5058 38.41 30.6349 38.3633C35.3197 36.6599 39.3073 33.6012 42.1669 29.5188ZM30.2344 36.0104C26.1777 34.4462 22.722 31.7436 20.2221 28.1739C17.6399 24.4875 16.2748 20.1598 16.2748 15.6586V5.48436L30.2344 2.37248L44.1944 5.48436V15.6586C44.1944 20.1594 42.8293 24.4871 40.247 28.1739C37.7467 31.7436 34.2911 34.4462 30.2344 36.0104Z" fill="#181818"/>
<path d="M42.2008 8.02183C42.2008 7.47252 41.8199 6.99736 41.2839 6.87788L30.4898 4.47141C30.3218 4.43433 30.1474 4.43433 29.9794 4.47141L19.1849 6.87788C18.5531 7.01887 18.1553 7.64509 18.2963 8.27681C18.4369 8.90852 19.0636 9.30632 19.6948 9.16533L30.2344 6.81608L39.857 8.96117V15.6587C39.857 19.265 38.7634 22.7321 36.6948 25.686C35.0327 28.0591 32.807 29.9817 30.2344 31.274C27.6617 29.9822 25.4365 28.0591 23.7744 25.686C21.985 23.1313 20.9102 20.1448 20.6666 17.0503C20.646 16.7921 20.6314 16.5312 20.6227 16.274C20.6003 15.6267 20.0542 15.1208 19.411 15.1428C18.7642 15.1652 18.2579 15.7077 18.2803 16.3545C18.2904 16.6461 18.3069 16.9423 18.3298 17.2343C18.6062 20.7458 19.8253 24.1333 21.8545 27.0305C23.8591 29.892 26.5865 32.1771 29.7423 33.6383C29.8984 33.7107 30.0668 33.7468 30.2348 33.7468C30.4028 33.7468 30.5708 33.7107 30.7269 33.6383C33.8832 32.1767 36.6106 29.892 38.6147 27.0305C40.9607 23.681 42.2013 19.7484 42.2013 15.6587V8.02183H42.2008Z" fill="#399A3A"/>
<path d="M26.8959 21.7419C27.101 21.9846 27.3953 22.1333 27.7125 22.1544C27.7386 22.1562 27.7647 22.1571 27.7908 22.1571C28.0801 22.1571 28.3607 22.05 28.5768 21.8546L37.0729 14.1678C37.5526 13.7338 37.5897 12.9927 37.1558 12.5125C36.7213 12.0328 35.9802 11.9957 35.5005 12.4296L27.903 19.303L25.7345 16.7381C25.3171 16.2442 24.5773 16.1819 24.0834 16.5999C23.589 17.0178 23.5272 17.7571 23.9447 18.2515L26.8959 21.7419Z" fill="#181818"/>
<path d="M20.3664 38.7837C19.7488 37.9716 18.8512 37.4552 17.839 37.3289C16.8269 37.203 15.8299 37.4827 15.0316 38.1176C14.658 38.4147 14.3564 38.7708 14.1289 39.1631L13.7846 38.7145C13.4788 38.3167 13.3108 37.8214 13.3108 37.3197V26.7477C13.3108 24.5879 11.5535 22.8306 9.39374 22.8306C7.36219 22.8306 5.68585 24.3558 5.49405 26.3778L4.23978 39.6058C4.12945 40.7644 4.4563 41.9138 5.16354 42.8477L15.1245 55.818V58.8282C15.1245 59.4755 15.6491 60.0001 16.2964 60.0001C16.9432 60.0001 17.4683 59.4755 17.4683 58.8282V55.4197C17.4683 55.1615 17.3826 54.9107 17.2256 54.7061L7.0271 41.4263C6.67966 40.9676 6.51853 40.3996 6.573 39.8269L7.82773 26.5993C7.90464 25.7868 8.57801 25.1743 9.39374 25.1743C10.2617 25.1743 10.9671 25.8802 10.9671 26.7477V37.3197C10.9671 38.335 11.3077 39.3371 11.9261 40.1418L14.3793 43.3366C14.3829 43.3416 14.3866 43.3466 14.3902 43.3517L16.3696 45.9294C16.7642 46.4425 17.4998 46.5391 18.013 46.145C18.5261 45.7508 18.6227 45.0152 18.2286 44.5016L16.2428 41.9157C15.7828 41.3069 15.8926 40.4279 16.4914 39.9519C16.7921 39.7125 17.168 39.6072 17.5493 39.6543C17.9306 39.7019 18.2689 39.8969 18.5014 40.2027L23.2324 46.4201C24.1635 47.6437 24.6762 49.1644 24.6762 50.702V58.8282C24.6762 59.4755 25.2008 60.0001 25.8481 60.0001C26.4954 60.0001 27.02 59.4755 27.02 58.8282V50.702C27.02 48.6549 26.3374 46.6302 25.0978 45.001L20.3664 38.7837Z" fill="#181818"/>
<path d="M55.9008 39.6058L54.6461 26.3778C54.4543 24.3558 52.7775 22.8306 50.7464 22.8306C48.5866 22.8306 46.8293 24.5879 46.8293 26.7477V37.3197C46.8293 37.8214 46.6608 38.3167 46.3555 38.7145L46.0108 39.1631C45.7837 38.7713 45.4821 38.4152 45.1085 38.1176C44.3102 37.4827 43.3132 37.203 42.3011 37.3289C41.289 37.4552 40.3913 37.9716 39.7738 38.7837L35.0428 45.001C33.8031 46.6302 33.1201 48.6549 33.1201 50.7025V58.8282C33.1201 59.4755 33.6452 60.0001 34.292 60.0001C34.9393 60.0001 35.4639 59.4755 35.4639 58.8282V50.702C35.4639 49.1644 35.9766 47.6437 36.9077 46.4201L41.6387 40.2027C41.8717 39.8969 42.21 39.7024 42.5913 39.6543C42.9726 39.6072 43.3484 39.7125 43.6492 39.9519C44.2475 40.4279 44.3578 41.3069 43.8973 41.9157L41.912 44.5016C41.5178 45.0152 41.6144 45.7508 42.1276 46.145C42.6407 46.5391 43.3764 46.4425 43.771 45.9294L45.7499 43.3517C45.7535 43.3471 45.7567 43.3425 45.7604 43.338L48.2145 40.1423C48.8325 39.3371 49.173 38.335 49.173 37.3197V26.7477C49.173 25.8802 49.8789 25.1743 50.7464 25.1743C51.5621 25.1743 52.2355 25.7868 52.3128 26.5993L53.5676 39.8269C53.6216 40.4 53.4605 40.9676 53.1176 41.4204L42.9145 54.7061C42.7575 54.9107 42.6723 55.162 42.6723 55.4202V58.8282C42.6723 59.4755 43.1969 60.0001 43.8442 60.0001C44.4915 60.0001 45.0161 59.4755 45.0161 58.8282V55.818L54.9812 42.8417C55.6838 41.9138 56.0107 40.7644 55.9008 39.6058Z" fill="#181818"/>
<path d="M18.7893 13.1365C19.2018 13.4116 19.7603 13.3942 20.153 13.0917C20.5224 12.8069 20.6959 12.3098 20.5714 11.8584C20.4382 11.3746 20.0052 11.0194 19.5021 10.9919C19.004 10.9649 18.5339 11.2688 18.3513 11.7316C18.1508 12.2402 18.3362 12.8317 18.7893 13.1365Z" fill="#399A3A"/>
</g>
<defs>
<clipPath id="clip0_20_836">
<rect width="60" height="60" fill="white"/>
</clipPath>
</defs>
</svg>
