<svg width="48" height="48" viewBox="0 0 48 48" fill="none" xmlns="http://www.w3.org/2000/svg">
<rect width="48" height="48" rx="4" fill="#399A3A"/>
<g clip-path="url(#clip0_41_948)">
<path d="M35.9671 21.2021C35.8883 20.9608 35.6814 20.7884 35.4302 20.7489L27.9428 19.685L24.5735 12.9119C24.4602 12.6853 24.2287 12.5424 23.9775 12.5424C23.7263 12.5424 23.4947 12.6853 23.3815 12.9168L20.0565 19.7096L12.5691 20.8228C12.3179 20.8622 12.111 21.0346 12.0322 21.276C11.9534 21.5174 12.0224 21.7834 12.2046 21.9558L17.6379 27.2216L16.3818 34.6794C16.3374 34.9306 16.4409 35.1818 16.6478 35.3296C16.7611 35.4133 16.899 35.4576 17.0369 35.4576C17.1453 35.4576 17.2487 35.433 17.3472 35.3788L24.0317 31.8371L30.7358 35.3394C30.8343 35.3887 30.9378 35.4133 31.0412 35.4133C31.4057 35.4133 31.7062 35.1128 31.7062 34.7483C31.7062 34.6941 31.7013 34.6449 31.6865 34.5956L30.391 27.1822L35.7898 21.8868C35.9819 21.7095 36.0459 21.4435 35.9671 21.2021ZM29.2186 26.4778C29.061 26.6305 28.992 26.8521 29.0314 27.0689L30.1595 33.5365L24.3371 30.4973C24.145 30.3938 23.9135 30.3988 23.7164 30.4973L17.9137 33.571L19.0023 27.0935C19.0368 26.8767 18.9679 26.66 18.8102 26.5073L14.1011 21.9361L20.5983 20.9706C20.8151 20.9361 21.0023 20.8031 21.0958 20.6061L23.9824 14.7098L26.9084 20.5913C27.0069 20.7884 27.1941 20.9214 27.4108 20.9558L33.913 21.8819L29.2186 26.4778Z" fill="white"/>
</g>
<defs>
<clipPath id="clip0_41_948">
<rect width="24" height="24" fill="white" transform="translate(12 12)"/>
</clipPath>
</defs>
</svg>
